<svg width="48" height="48" viewBox="0 0 48 48" fill="none" xmlns="http://www.w3.org/2000/svg">
<path fill-rule="evenodd" clip-rule="evenodd" d="M14 8C14 5.79086 15.7909 4 18 4H30C32.2091 4 34 5.79086 34 8V12H37.9794C37.9917 11.9999 38.0041 11.9999 38.0165 12H42C43.1046 12 44 12.8954 44 14C44 15.1046 43.1046 16 42 16H39.8622L38.1276 40.285C37.9781 42.3782 36.2363 44 34.1378 44H13.8622C11.7637 44 10.0219 42.3782 9.8724 40.285L8.13776 16H6C4.89543 16 4 15.1046 4 14C4 12.8954 4.89543 12 6 12H9.98349C9.9959 11.9999 10.0083 11.9999 10.0206 12H14V8ZM18 12H30V8H18V12ZM12.148 16L13.8622 40H34.1378L35.852 16H12.148ZM20 20C21.1046 20 22 20.8954 22 22V34C22 35.1046 21.1046 36 20 36C18.8954 36 18 35.1046 18 34V22C18 20.8954 18.8954 20 20 20ZM28 20C29.1046 20 30 20.8954 30 22V34C30 35.1046 29.1046 36 28 36C26.8954 36 26 35.1046 26 34V22C26 20.8954 26.8954 20 28 20Z" fill="#999999"/>
</svg>
