<svg width="48" height="48" viewBox="0 0 48 48" fill="none" xmlns="http://www.w3.org/2000/svg">
<path fill-rule="evenodd" clip-rule="evenodd" d="M24.0001 5C24.7576 5 25.4501 5.428 25.7889 6.10557L30.9467 16.4212L42.2879 18.0708C43.0412 18.1804 43.667 18.708 43.9022 19.432C44.1374 20.1559 43.9413 20.9506 43.3963 21.482L35.142 29.5299L36.9988 40.877C37.1215 41.6269 36.8086 42.3816 36.1913 42.8248C35.574 43.2679 34.7589 43.3229 34.0876 42.9667L24.0001 37.6141L13.9125 42.9667C13.2412 43.3229 12.4261 43.2679 11.8088 42.8248C11.1915 42.3816 10.8786 41.6269 11.0013 40.877L12.8581 29.5299L4.60386 21.482C4.05885 20.9506 3.86273 20.1559 4.09794 19.432C4.33315 18.708 4.95892 18.1804 5.71218 18.0708L17.0534 16.4212L22.2112 6.10557C22.55 5.428 23.2425 5 24.0001 5ZM24.0001 11.4721L20.1639 19.1444C19.8712 19.7298 19.3106 20.135 18.6629 20.2292L10.2968 21.4461L16.3963 27.393C16.8636 27.8487 17.0792 28.5038 16.9738 29.148L15.6001 37.543L23.0626 33.5833C23.6489 33.2722 24.3512 33.2722 24.9375 33.5833L32.4 37.543L31.0263 29.148C30.9209 28.5038 31.1365 27.8487 31.6039 27.393L37.7033 21.4461L29.3372 20.2292C28.6895 20.135 28.1289 19.7298 27.8362 19.1444L24.0001 11.4721Z" fill="#999999"/>
</svg>
