<svg width="48" height="48" viewBox="0 0 48 48" fill="none" xmlns="http://www.w3.org/2000/svg">
<path fill-rule="evenodd" clip-rule="evenodd" d="M24 8C17.3726 8 12 13.3726 12 20C12 22.0557 12.7279 24.3536 13.963 26.7356C15.1891 29.1003 16.8472 31.4183 18.5439 33.4786C20.2356 35.5329 21.933 37.2914 23.2096 38.5376C23.4966 38.8178 23.7617 39.0715 24 39.2962C24.2383 39.0715 24.5034 38.8178 24.7904 38.5376C26.067 37.2914 27.7644 35.5329 29.4561 33.4786C31.1528 31.4183 32.8109 29.1003 34.037 26.7356C35.2721 24.3536 36 22.0557 36 20C36 13.3726 30.6274 8 24 8ZM24 42C22.6984 43.5185 22.6981 43.5182 22.6976 43.5179L22.6934 43.5142L22.6833 43.5055L22.6483 43.4752C22.6184 43.4492 22.5756 43.4118 22.5207 43.3635C22.411 43.2669 22.2531 43.1264 22.0538 42.9454C21.6554 42.5836 21.0909 42.0593 20.4154 41.3999C19.067 40.0836 17.2644 38.2171 15.4561 36.0214C13.6528 33.8317 11.8109 31.2747 10.412 28.5769C9.02211 25.8964 8 22.9443 8 20C8 11.1634 15.1634 4 24 4C32.8366 4 40 11.1634 40 20C40 22.9443 38.9779 25.8964 37.588 28.5769C36.1891 31.2747 34.3472 33.8317 32.5439 36.0214C30.7356 38.2171 28.933 40.0836 27.5846 41.3999C26.9091 42.0593 26.3446 42.5836 25.9462 42.9454C25.7469 43.1264 25.589 43.2669 25.4793 43.3635C25.4244 43.4118 25.3816 43.4492 25.3517 43.4752L25.3167 43.5055L25.3066 43.5142L25.3034 43.5169C25.303 43.5173 25.3016 43.5185 24 42ZM24 42L22.6976 43.5179C23.4466 44.1598 24.5526 44.1605 25.3016 43.5185L24 42ZM24 16C21.7909 16 20 17.7909 20 20C20 22.2091 21.7909 24 24 24C26.2091 24 28 22.2091 28 20C28 17.7909 26.2091 16 24 16ZM16 20C16 15.5817 19.5817 12 24 12C28.4183 12 32 15.5817 32 20C32 24.4183 28.4183 28 24 28C19.5817 28 16 24.4183 16 20Z" fill="#999999"/>
</svg>
