<svg width="48" height="48" viewBox="0 0 48 48" fill="none" xmlns="http://www.w3.org/2000/svg">
<path fill-rule="evenodd" clip-rule="evenodd" d="M24 4C25.1046 4 26 4.89543 26 6V8C26 9.10457 25.1046 10 24 10C22.8954 10 22 9.10457 22 8V6C22 4.89543 22.8954 4 24 4ZM38.1422 9.85785C38.9233 10.6389 38.9233 11.9052 38.1422 12.6863L36.728 14.1005C35.947 14.8815 34.6806 14.8815 33.8996 14.1005C33.1186 13.3194 33.1186 12.0531 33.8996 11.2721L35.3138 9.85785C36.0949 9.0768 37.3612 9.0768 38.1422 9.85785ZM9.85785 9.85785C10.6389 9.0768 11.9052 9.0768 12.6863 9.85785L14.1005 11.2721C14.8815 12.0531 14.8815 13.3194 14.1005 14.1005C13.3194 14.8815 12.0531 14.8815 11.2721 14.1005L9.85785 12.6863C9.0768 11.9052 9.0768 10.6389 9.85785 9.85785ZM24 16C19.5817 16 16 19.5817 16 24C16 28.4183 19.5817 32 24 32C28.4183 32 32 28.4183 32 24C32 19.5817 28.4183 16 24 16ZM12 24C12 17.3726 17.3726 12 24 12C30.6274 12 36 17.3726 36 24C36 30.6274 30.6274 36 24 36C17.3726 36 12 30.6274 12 24ZM4 24C4 22.8954 4.89543 22 6 22H8C9.10457 22 10 22.8954 10 24C10 25.1046 9.10457 26 8 26H6C4.89543 26 4 25.1046 4 24ZM38 24C38 22.8954 38.8954 22 40 22H42C43.1046 22 44 22.8954 44 24C44 25.1046 43.1046 26 42 26H40C38.8954 26 38 25.1046 38 24ZM11.2721 33.8995C12.0531 33.1184 13.3194 33.1184 14.1005 33.8995C14.8815 34.6805 14.8815 35.9469 14.1005 36.7279L12.6863 38.1421C11.9052 38.9232 10.6389 38.9232 9.85785 38.1421C9.0768 37.3611 9.0768 36.0947 9.85785 35.3137L11.2721 33.8995ZM33.8996 36.7279C33.1186 35.9469 33.1186 34.6805 33.8996 33.8995C34.6806 33.1184 35.947 33.1184 36.728 33.8995L38.1422 35.3137C38.9233 36.0947 38.9233 37.3611 38.1422 38.1421C37.3612 38.9232 36.0949 38.9232 35.3138 38.1421L33.8996 36.7279ZM24 38C25.1046 38 26 38.8954 26 40V42C26 43.1046 25.1046 44 24 44C22.8954 44 22 43.1046 22 42V40C22 38.8954 22.8954 38 24 38Z" fill="#999999"/>
</svg>
